# xmcd CD database file generated by OrangeCD 6.0
#
# Track frame offsets:
#	150
#	11167
#	26584
#	43460
#	57347
#	67499
#	76599
#	97824
#	105652
#	114415
#	127080
#	134647
#
# Disc length: 2018 seconds
#
# Revision: 2
# Processed by: cddbd v1.5.1PL2 Copyright (c) Steve Scherf et al.
# Submitted via: OrangeCD 6.0
#
DISCID=ab07e00c
DTITLE=Go-Kart Mozart - Tearing Up the Album Chart
DYEAR=2005
DGENRE=Country
TTITLE0=Glorious Chorus
TTITLE1=Summer Is Here
TTITLE2=Electric Rock and Roll
TTITLE3=Listening To Marmalade
TTITLE4=At The Ddu
TTITLE5=On A Building Site
TTITLE6=Fuzzy Duck
TTITLE7=Transgressions
TTITLE8=Delta Echo Echo Beta Alpha Neon Kettle
TTITLE9=Donna and The Dopefiends
TTITLE10=England and Wales
TTITLE11=City Centre
EXTD=
EXTT0=
EXTT1=
EXTT2=
EXTT3=
EXTT4=
EXTT5=
EXTT6=
EXTT7=
EXTT8=
EXTT9=
EXTT10=
EXTT11=
PLAYORDER=
